<?xml version="1.0" encoding="UTF-8" standalone="no"?>
<svg
   version="1.0"
   width="1364.000000pt"
   height="782.000000pt"
   viewBox="0 0 1364.000000 782.000000"
   preserveAspectRatio="xMidYMid meet"
   id="svg24"
   sodipodi:docname="9715a11604462d1e81ba5ec12534d9bf.svg"
   xmlns:inkscape="http://www.inkscape.org/namespaces/inkscape"
   xmlns:sodipodi="http://sodipodi.sourceforge.net/DTD/sodipodi-0.dtd"
   xmlns="http://www.w3.org/2000/svg"
   xmlns:svg="http://www.w3.org/2000/svg">
  <defs
     id="defs28" />
  <sodipodi:namedview
     id="namedview26"
     pagecolor="#ffffff"
     bordercolor="#666666"
     borderopacity="1.0"
     inkscape:pageshadow="2"
     inkscape:pageopacity="0.0"
     inkscape:pagecheckerboard="0"
     inkscape:document-units="pt" />
  <g
     transform="translate(0.000000,782.000000) scale(0.100000,-0.100000)"
     fill="#000000"
     stroke="none"
     id="g22">
    <path
       d="M6715 7810 c-210 -28 -404 -110 -562 -239 l-62 -50 -82 20 c-187 44 -267 53 -499 53 -213 0 -230 -1 -325 -27 -131 -35 -315 -127 -535 -267 -233 -148 -241 -157 -265 -272 -6 -33 -21 -35 -55 -8 -14 11 -34 20 -45 20 -64 0 -220 -143 -297 -273 -31 -52 -45 -66 -57 -61 -68 28 -187 20 -249 -18 -40 -24 -57 -57 -78 -145 -23 -95 -20 -214 5 -287 23 -66 26 -111 10 -153 -19 -47 -14 -152 11 -215 12 -32 25 -58 30 -58 4 0 5 -30 2 -67 -5 -62 -9 -73 -52 -129 -71 -93 -103 -165 -109 -247 l-6 -70 -103 -42 c-56 -24 -128 -62 -159 -86 -89 -69 -161 -177 -189 -284 -19 -69 -18 -219 2 -286 59 -200 227 -360 454 -431 65 -20 95 -23 225 -23 130 0 159 4 220 23 81 28 115 44 172 85 l42 29 33 -20 c18 -12 72 -35 118 -52 47 -17 110 -45 140 -63 74 -41 182 -146 241 -233 47 -71 48 -72 28 -90 -78 -70 -133 -220 -126 -340 l4 -72 -206 -6 c-361 -11 -401 -15 -428 -42 -43 -43 -23 -98 50 -136 58 -29 167 -34 347 -14 80 8 181 18 225 22 78 6 81 5 92 -17 22 -49 108 -152 157 -189 28 -21 87 -57 131 -81 44 -23 81 -43 83 -45 2 -1 -34 -49 -79 -106 -45 -56 -118 -156 -160 -222 -93 -141 -247 -440 -284 -550 -88 -261 -6 -578 246 -952 87 -129 128 -211 129 -258 0 -11 -38 -97 -85 -190 -122 -246 -134 -315 -76 -422 18 -34 39 -55 71 -72 49 -26 99 -27 295 -2 50 6 131 9 180 5 156 -10 483 33 572 76 87 42 126 125 126 269 1 147 -24 240 -110 409 -77 153 -84 182 -59 253 20 55 68 110 164 187 175 141 358 221 652 285 276 60 346 70 490 70 172 0 238 -15 484 -109 249 -95 458 -162 682 -219 202 -51 277 -80 444 -168 157 -82 236 -136 302 -205 94 -99 131 -193 143 -363 4 -47 11 -101 16 -121 13 -51 70 -113 129 -138 76 -33 312 -56 460 -45 63 5 224 9 356 9 228 0 243 1 264 20 51 45 63 134 35 254 -31 129 -66 183 -225 346 -160 164 -176 189 -271 400 -119 269 -212 416 -362 574 -89 95 -157 179 -157 195 0 3 13 6 28 6 15 0 47 10 71 23 38 19 53 37 104 127 58 101 213 336 259 392 l23 28 300 25 c165 13 348 27 407 31 l106 7 20 -39 c11 -21 45 -111 77 -199 68 -189 85 -226 121 -254 88 -69 244 -41 244 43 0 19 -21 79 -49 137 -41 88 -131 316 -131 331 0 3 25 8 57 12 72 8 120 31 138 67 22 42 18 67 -14 100 -25 24 -37 29 -81 29 -28 0 -59 -4 -69 -10 -10 -5 -44 -13 -74 -18 l-56 -9 -58 96 c-123 203 -266 366 -367 416 -55 27 -125 33 -173 14 -15 -7 -64 -12 -108 -13 -58 -1 -87 -6 -106 -19 -14 -9 -54 -65 -89 -125 -34 -59 -104 -176 -154 -261 l-91 -154 -6 94 c-15 217 -126 391 -308 482 -127 64 -269 72 -413 23 -40 -13 -74 -23 -75 -23 0 1 4 41 9 90 14 109 4 147 -56 214 -61 68 -63 84 -27 191 38 109 38 143 4 257 -57 193 -28 284 145 455 121 118 186 158 417 250 180 72 357 160 440 219 194 138 295 200 460 283 99 50 252 134 340 186 416 247 452 284 443 445 -4 84 -36 161 -119 283 -144 214 -317 325 -487 311 -84 -6 -118 -18 -355 -124 -106 -47 -248 -103 -317 -125 -293 -93 -490 -160 -915 -310 l-450 -159 -75 35 c-186 86 -260 95 -340 41 -29 -19 -58 -35 -65 -35 -7 0 -42 32 -77 71 -57 63 -70 72 -113 80 -81 15 -296 -20 -316 -52 -4 -8 -13 0 -24 22 -10 19 -47 77 -83 129 -119 172 -154 273 -133 385 6 33 17 66 25 73 14 15 16 13 92 -91 49 -66 123 -107 194 -107 84 0 148 35 247 136 l84 85 -29 77 c-16 42 -53 149 -82 237 -65 200 -131 339 -210 443 -180 240 -522 367 -865 322z m377 -49 c165 -43 273 -100 381 -201 130 -122 203 -259 317 -603 l73 -219 -79 -79 c-43 -44 -97 -88 -120 -99 -100 -49 -220 -2 -287 113 -14 23 -36 53 -50 65 -24 23 -26 23 -51 7 -51 -34 -70 -158 -40 -270 17 -69 40 -110 129 -235 341 -483 413 -1146 172 -1587 -34 -62 -65 -113 -68 -113 -4 0 -10 20 -13 44 -17 111 -119 248 -228 306 -57 31 -73 35 -160 38 l-98 4 0 43 c0 47 -16 68 -55 68 -14 0 -121 -48 -238 -107 -189 -94 -229 -110 -367 -146 -85 -23 -202 -55 -260 -72 -291 -84 -394 -81 -1017 28 -139 24 -255 44 -257 44 -7 0 -61 100 -76 140 -17 45 -22 51 -39 41 -11 -7 -6 -26 28 -94 22 -47 41 -95 41 -106 0 -10 -13 -30 -29 -44 -16 -13 -46 -48 -67 -78 -54 -78 -82 -106 -145 -149 -65 -45 -116 -100 -125 -135 -12 -49 3 -73 84 -126 42 -29 108 -83 147 -122 73 -73 135 -111 201 -122 68 -13 69 -18 15 -63 l-49 -42 -55 78 c-105 150 -207 223 -440 317 -38 16 -71 34 -74 40 -2 7 18 44 45 81 72 100 142 227 202 367 29 67 59 132 67 144 8 12 12 26 9 31 -3 6 11 13 32 17 48 8 320 145 397 200 52 36 63 41 78 30 9 -7 65 -15 129 -18 62 -4 181 -20 263 -37 302 -61 519 -31 718 100 118 77 210 181 253 288 12 30 23 42 43 47 42 9 173 87 244 144 62 51 145 142 100 111 -12 -8 -84 -58 -160 -111 -76 -54 -155 -107 -175 -119 l-37 -21 11 38 c6 21 8 84 6 143 -6 123 -30 203 -89 298 l-39 64 25 29 c13 17 29 48 35 70 38 140 -112 315 -286 334 l-49 6 63 -25 c136 -55 223 -144 246 -253 8 -35 -6 -97 -28 -129 -15 -20 -16 -20 -73 33 -66 62 -186 125 -283 149 -102 26 -262 15 -365 -24 -123 -47 -187 -77 -266 -126 -73 -46 -74 -46 -162 -46 -49 0 -97 -4 -107 -10 -10 -5 -34 -32 -54 -60 -43 -59 -75 -80 -226 -145 -172 -73 -449 -207 -687 -333 l-211 -112 -72 0 -73 0 -56 -59 c-48 -51 -104 -91 -127 -91 -4 0 -4 27 -1 59 6 70 58 177 118 242 30 32 39 51 39 77 0 80 62 457 87 530 79 231 189 452 304 608 43 59 105 112 166 143 l41 20 27 -21 c33 -25 72 -27 89 -2 8 10 17 39 20 64 8 60 42 93 211 202 283 183 405 245 563 289 62 18 113 23 267 26 211 5 354 -9 521 -52 52 -14 102 -25 112 -25 10 0 31 14 48 31 108 113 327 218 534 255 106 19 313 11 412 -15z m-3189 -1080 l25 -10 -57 -113 c-94 -189 -147 -352 -173 -534 -22 -155 -23 -156 -37 -123 -16 36 -18 126 -6 241 6 54 3 77 -14 127 -25 73 -27 155 -6 266 17 85 37 117 90 141 35 15 142 18 178 5z m6808 -73 c82 -42 164 -105 119 -92 -78 22 -159 -6 -194 -68 l-19 -33 24 21 c42 38 92 58 144 58 71 0 105 -17 152 -77 35 -45 123 -181 123 -191 0 -1 -35 -1 -78 2 -85 5 -136 -12 -177 -58 l-20 -23 41 21 c52 27 156 45 206 37 34 -6 42 -13 55 -44 9 -20 16 -63 16 -96 0 -74 -25 -128 -85 -180 -73 -62 -410 -262 -663 -392 -183 -95 -277 -150 -395 -235 -169 -120 -282 -179 -529 -278 -177 -70 -215 -89 -292 -141 -76 -51 -201 -176 -246 -247 -21 -31 -60 -82 -88 -112 -54 -57 -139 -170 -157 -205 -11 -23 115 103 155 155 l27 35 0 -71 c0 -46 9 -99 25 -154 33 -109 32 -150 -7 -255 -31 -85 -31 -88 -16 -135 18 -57 9 -88 -48 -157 -19 -24 -32 -43 -28 -43 24 0 76 47 94 86 22 44 23 45 42 27 43 -38 47 -62 42 -219 -3 -103 -9 -153 -18 -162 -10 -10 -27 -11 -77 -3 -101 16 -378 33 -472 30 l-85 -4 -31 155 c-77 374 -134 581 -218 795 -116 295 -205 428 -251 372 -6 -7 -10 -87 -9 -212 0 -174 -2 -210 -21 -276 -57 -210 -174 -348 -417 -494 -150 -90 -191 -104 -560 -190 -88 -21 -221 -55 -295 -76 l-135 -39 -17 23 -17 22 117 57 c64 32 193 94 285 140 215 104 353 195 468 305 153 148 244 281 275 406 9 34 51 130 94 212 133 256 166 401 156 700 -8 265 -51 450 -156 672 l-49 103 52 15 c29 9 91 21 138 27 120 16 153 5 209 -68 24 -30 51 -59 61 -64 16 -9 16 -12 -2 -60 -10 -28 -19 -67 -19 -87 0 -37 0 -37 16 -15 9 13 21 50 27 82 10 51 14 59 38 64 14 3 41 18 60 33 48 41 124 39 244 -7 88 -35 90 -36 123 -95 33 -59 81 -119 90 -111 5 6 -32 84 -54 114 -10 14 -12 22 -5 22 6 0 145 48 309 106 430 153 846 295 1007 344 148 45 228 76 415 161 213 96 255 109 346 107 70 -3 89 -8 155 -40z m-4787 -303 c270 -57 465 -300 466 -580 0 -204 -129 -389 -352 -501 -104 -53 -197 -75 -333 -81 -107 -4 -137 -1 -280 27 -88 18 -207 35 -265 39 -85 5 -105 9 -103 21 1 8 17 56 35 106 l33 92 57 -53 c62 -58 152 -107 238 -131 88 -23 369 -30 455 -10 287 68 475 319 435 580 -32 209 -200 384 -425 441 -81 21 -222 19 -325 -5 -46 -10 -86 -17 -88 -16 -5 6 129 57 187 71 74 18 180 18 265 0z m-49 -80 c240 -61 405 -257 405 -481 0 -133 -53 -248 -159 -346 -132 -122 -318 -170 -508 -132 l-33 7 0 473 0 473 38 6 c20 4 42 8 47 10 28 9 158 3 210 -10z m-718 -121 c21 -6 21 -8 -22 -60 -55 -69 -94 -149 -108 -228 -6 -33 -11 -62 -12 -64 -1 -1 -24 8 -51 20 -66 31 -221 30 -339 -1 -141 -37 -396 -176 -458 -251 -76 -90 -113 -240 -81 -324 4 -10 -14 -4 -52 19 -132 79 -289 102 -463 66 -57 -11 -109 -21 -115 -21 -6 1 27 17 74 36 68 27 97 47 145 94 l61 60 65 0 c65 0 67 1 469 204 223 112 459 225 525 252 120 49 162 80 248 183 17 21 66 28 114 15z m-191 -369 c49 -22 51 -24 58 -71 3 -27 18 -76 32 -109 33 -80 37 -110 19 -170 -19 -65 -71 -134 -137 -184 -64 -48 -309 -175 -302 -156 3 7 -8 40 -25 73 -58 115 -131 384 -131 485 0 28 -4 37 -16 37 -48 0 29 -355 115 -530 20 -41 37 -78 39 -82 6 -12 -102 -40 -162 -41 -51 -1 -73 4 -138 36 -87 42 -170 115 -193 170 -21 51 -19 122 7 198 29 88 98 155 243 236 232 131 451 171 591 108z m-1131 -480 c205 -39 372 -186 420 -370 66 -256 -112 -525 -391 -591 -101 -24 -256 -15 -347 20 -231 88 -370 297 -338 510 10 71 36 143 63 179 12 16 42 -8 352 -278 382 -334 346 -316 404 -207 43 82 62 155 62 242 0 139 -45 260 -132 355 -56 62 -111 97 -202 131 l-61 23 47 0 c25 1 81 -6 123 -14z m-632 -189 c18 -14 17 -16 -6 -63 -63 -123 -74 -272 -29 -396 59 -163 219 -300 399 -343 310 -75 630 91 715 369 31 103 23 239 -20 330 l-31 67 57 -29 c31 -16 84 -37 117 -47 33 -10 61 -19 63 -20 6 -4 -80 -198 -135 -306 -65 -129 -162 -268 -218 -313 -96 -78 -241 -125 -387 -125 -319 0 -584 182 -653 450 -33 126 -8 278 65 393 32 51 36 53 63 33z m3735 -79 c9 -47 -6 -65 -66 -77 -47 -10 -266 -70 -347 -95 -11 -3 68 39 175 94 107 55 204 99 215 98 11 -1 21 -10 23 -20z m220 -102 c55 -17 135 -71 140 -96 6 -30 -76 -98 -139 -117 -61 -18 -79 -42 -31 -42 44 0 124 44 166 90 37 41 40 42 54 24 8 -10 27 -46 43 -78 32 -68 28 -85 -33 -142 -48 -46 -94 -66 -165 -72 -44 -3 -63 -9 -63 -18 0 -20 94 -18 155 2 29 10 67 35 96 63 l48 46 4 -30 c7 -47 -12 -143 -40 -203 -36 -76 -134 -203 -228 -295 -119 -118 -250 -199 -582 -362 l-296 -146 -81 12 c-95 14 -308 8 -636 -17 l-226 -17 -26 26 c-29 29 -84 47 -144 47 -46 0 -70 -20 -83 -66 -7 -28 -10 -29 -92 -36 -46 -4 -149 -8 -229 -10 l-145 -3 0 90 c0 81 4 97 33 160 57 120 270 309 535 475 275 172 884 454 1252 579 389 134 591 172 713 136z m-943 -184 c-538 -215 -1033 -474 -1285 -671 -23 -18 -31 -19 -90 -9 -73 11 -166 49 -138 56 9 2 30 -3 47 -11 39 -21 138 -21 186 0 46 19 145 116 145 141 0 31 48 118 92 168 47 54 119 93 186 102 26 3 55 10 64 15 42 21 27 93 -29 139 l-28 22 50 -7 c294 -41 400 -29 835 93 58 16 112 30 120 30 8 0 -61 -30 -155 -68z m-1175 9 c129 -22 240 -43 245 -45 6 -3 -22 -3 -61 -1 -130 8 -258 -31 -336 -102 -50 -46 -83 -59 -103 -42 -9 7 -28 10 -48 6 -41 -8 -181 -88 -225 -130 -33 -30 -34 -33 -29 -89 l5 -58 -46 34 c-66 47 -66 67 0 130 29 29 76 68 103 87 28 20 72 66 100 106 62 89 125 153 145 149 8 -2 121 -22 250 -45z m2798 -33 c31 -33 143 -273 196 -420 55 -151 110 -358 166 -622 22 -104 42 -199 45 -211 4 -20 0 -21 -113 -27 -273 -15 -777 -103 -872 -152 -99 -51 -57 -155 61 -155 25 0 95 14 155 31 60 18 181 44 269 59 l160 27 7 -176 c3 -97 11 -255 17 -351 6 -96 11 -185 11 -196 0 -15 -21 -36 -72 -71 -195 -134 -400 -199 -668 -210 -389 -16 -736 124 -1025 413 -204 204 -296 343 -303 460 -7 107 15 137 158 209 70 36 80 38 153 36 64 -2 84 2 112 19 19 12 37 30 40 41 4 11 18 24 32 30 49 18 323 90 530 138 239 56 310 81 438 156 251 147 387 306 447 522 19 68 22 104 22 276 0 108 3 197 6 197 4 0 16 -10 28 -23z m-2488 -62 c33 -17 60 -52 60 -77 0 -12 -11 -19 -37 -23 -155 -26 -268 -124 -317 -273 -31 -92 -126 -162 -221 -162 l-48 0 59 38 c65 42 84 66 104 127 41 128 146 233 258 255 88 18 102 26 102 57 0 15 -10 37 -22 50 l-21 23 27 0 c15 0 40 -7 56 -15z m3962 -1106 c184 -39 342 -195 393 -389 8 -30 15 -99 15 -152 0 -93 -1 -98 -22 -102 -28 -6 -382 -43 -386 -41 -1 1 3 26 8 56 31 158 -44 245 -167 194 -19 -8 -37 -15 -39 -15 -9 0 -3 48 12 89 27 78 -6 141 -94 179 -41 18 -50 27 -60 60 -19 61 -16 68 37 91 96 41 201 51 303 30z m-3318 -202 c-114 -62 -149 -100 -159 -176 -17 -128 65 -273 280 -499 217 -228 456 -369 735 -433 121 -29 383 -36 510 -15 193 31 379 102 515 194 l60 41 12 -46 c15 -60 49 -93 101 -100 51 -7 133 13 161 38 27 25 27 74 1 114 -17 26 -20 47 -20 146 0 113 1 118 33 172 17 31 38 56 45 57 27 0 345 71 429 96 135 38 248 83 320 126 35 22 67 38 69 35 3 -3 20 -66 39 -140 23 -94 32 -148 28 -177 -4 -30 -1 -45 11 -59 9 -10 28 -59 41 -109 14 -50 40 -134 60 -186 28 -75 34 -103 29 -134 -8 -50 8 -80 51 -98 22 -9 47 -34 72 -71 21 -32 81 -103 133 -158 153 -160 227 -276 361 -567 44 -95 94 -197 112 -226 17 -30 94 -116 169 -192 113 -112 143 -149 169 -203 81 -174 78 -342 -6 -363 -14 -3 -72 -3 -129 1 l-103 7 21 41 c26 53 26 123 0 168 -23 38 -86 79 -124 79 -20 0 -15 -6 28 -31 71 -41 94 -88 82 -173 -5 -32 -12 -62 -17 -66 -10 -8 -431 -45 -438 -38 -3 2 4 22 15 43 56 110 -10 245 -120 245 l-35 0 40 -19 c78 -35 116 -107 100 -188 -15 -80 -25 -83 -195 -63 -121 15 -173 34 -214 80 -41 46 -52 82 -60 208 -15 212 -97 345 -289 472 -87 57 -359 193 -437 218 -36 12 -130 37 -210 57 -176 44 -427 125 -655 212 -214 82 -292 102 -430 110 l-110 7 60 12 c112 23 349 55 510 67 l160 13 -100 8 c-190 14 -451 -19 -690 -88 -66 -19 -192 -49 -280 -66 -405 -80 -571 -149 -780 -322 -126 -104 -169 -164 -181 -251 -8 -59 6 -103 70 -215 77 -136 108 -246 110 -387 1 -102 -1 -114 -28 -168 -31 -65 -62 -89 -141 -112 -51 -15 -281 -45 -347 -45 -36 0 -37 1 -47 51 -20 92 13 163 94 200 38 17 38 19 12 19 -106 1 -177 -118 -133 -224 9 -21 16 -40 16 -42 0 -2 -51 -4 -112 -4 -62 0 -153 -5 -202 -11 -64 -8 -91 -8 -99 0 -6 6 -13 42 -15 79 -3 57 0 72 20 102 13 19 43 45 68 58 43 21 43 22 14 22 -42 0 -96 -32 -119 -71 -24 -42 -25 -121 -2 -168 9 -19 17 -36 17 -39 0 -12 -117 9 -139 26 -39 27 -71 98 -71 154 0 61 31 142 121 318 70 137 72 143 66 197 -7 66 -36 125 -116 236 -122 171 -213 356 -259 527 -36 137 -36 293 1 406 31 94 167 367 251 501 115 186 265 373 298 373 20 0 21 -4 15 -172 -4 -95 -10 -208 -13 -250 -6 -75 -6 -77 22 -103 27 -25 34 -27 106 -23 58 2 83 8 105 24 50 37 56 64 61 260 l5 182 96 4 c162 7 199 44 179 176 -24 149 30 218 236 304 117 48 167 51 80 5z m-170 -7 c-81 -40 -138 -91 -164 -146 -21 -42 -22 -55 -16 -148 6 -91 5 -104 -11 -118 -25 -22 -88 -38 -150 -38 -83 0 -83 0 -83 99 -1 47 -5 147 -10 221 -5 74 -8 136 -6 137 7 7 233 20 365 22 l134 1 -59 -30z m4598 -58 c39 -37 88 -92 109 -123 49 -72 99 -157 99 -168 0 -5 -42 -12 -92 -16 -51 -4 -190 -15 -308 -25 -118 -10 -216 -17 -218 -16 -6 6 200 315 248 373 61 74 56 74 162 -25z m-5307 -128 c4 -96 6 -177 4 -178 -2 -2 -54 20 -116 50 -84 40 -129 69 -177 115 -65 61 -131 147 -120 158 5 5 240 24 370 30 l32 1 7 -176z m3520 116 c147 -10 249 -32 242 -53 -8 -25 -74 -58 -196 -98 -109 -36 -316 -89 -346 -89 -6 0 -11 41 -11 100 -1 55 -5 111 -8 125 l-6 25 92 0 c51 0 156 -5 233 -10z m-351 -31 c3 -17 6 -73 6 -124 l0 -93 -50 -11 c-28 -6 -57 -11 -64 -11 -15 0 -29 158 -19 228 l6 42 57 0 c56 0 58 -1 64 -31z m976 -149 c36 -20 48 -90 29 -178 -10 -48 -12 -50 -56 -61 -25 -7 -47 -11 -48 -9 -3 3 -55 215 -55 223 0 3 12 11 28 19 31 18 75 20 102 6z m-1062 -286 c-7 -15 -14 -21 -16 -15 -5 16 5 41 17 41 7 0 6 -10 -1 -26z m1365 -107 c-4 -7 -46 -66 -92 -131 l-83 -117 -30 28 c-37 35 -76 109 -84 162 l-7 41 49 1 c27 0 87 6 134 13 117 18 122 18 113 3z m-314 -82 c15 -60 54 -130 94 -167 l29 -28 -23 -31 -22 -31 -14 26 c-17 32 -79 219 -88 266 -11 54 10 24 24 -35z"
       id="path2" />
    <path
       d="M4386 6629 c-9 -47 -7 -168 4 -219 12 -52 60 -173 67 -166 2 2 -5 46 -16 98 -11 51 -25 143 -31 203 -7 61 -13 111 -15 113 -1 1 -5 -12 -9 -29z"
       id="path4" />
    <path
       d="M4615 6150 c-81 -11 -205 -58 -290 -110 -80 -49 -174 -119 -195 -146 -14 -17 -13 -17 15 1 210 134 333 190 555 253 35 10 35 10 5 10 -16 0 -57 -4 -90 -8z"
       id="path6" />
    <path
       d="M4570 6059 c-41 -10 -103 -32 -137 -49 -74 -34 -228 -138 -263 -176 l-25 -27 39 23 c228 137 327 184 473 224 88 24 88 25 38 25 -27 0 -84 -9 -125 -20z"
       id="path8" />
    <path
       d="M4580 5976 c-41 -12 -100 -35 -130 -50 -82 -42 -211 -130 -245 -167 l-30 -33 30 19 c191 120 353 198 475 230 l95 24 -60 0 c-33 0 -93 -10 -135 -23z"
       id="path10" />
    <path
       d="M4990 5618 c-1 -41 -38 -107 -72 -128 -36 -22 -100 -26 -145 -9 -15 5 -47 31 -70 56 -34 37 -46 44 -65 38 -59 -18 -85 -73 -67 -140 15 -53 93 -130 148 -145 103 -27 220 29 292 141 20 30 40 49 51 49 11 0 16 5 13 10 -12 19 -27 10 -88 -56 -131 -140 -258 -156 -349 -43 -37 46 -47 102 -23 129 25 28 48 25 68 -9 22 -37 91 -71 145 -71 93 0 158 57 169 149 3 28 3 51 -1 51 -3 0 -6 -10 -6 -22z"
       id="path12" />
    <path
       d="M4305 5434 c-20 -22 -25 -37 -25 -81 0 -49 -4 -57 -42 -100 l-43 -47 35 21 c48 29 80 78 80 123 0 20 7 45 15 56 15 19 15 19 30 -1 22 -27 39 -92 39 -147 1 -40 -4 -52 -29 -78 -17 -17 -58 -42 -90 -56 l-60 -25 42 4 c104 12 173 75 173 159 0 88 -50 198 -90 198 -6 0 -22 -12 -35 -26z"
       id="path14" />
    <path
       d="M13054 3786 c-41 -18 -64 -52 -64 -96 0 -31 -38 -278 -102 -662 -19 -118 -23 -128 -43 -128 -12 0 -147 -6 -301 -14 -153 -8 -339 -17 -412 -21 l-133 -6 6 78 c4 43 13 143 22 223 31 307 29 334 -31 371 -38 23 -76 24 -144 4 -93 -28 -93 -28 -86 -314 3 -135 2 -273 -3 -305 l-8 -59 -231 2 c-143 2 -247 -2 -272 -8 -70 -19 -93 -85 -47 -139 40 -48 88 -55 320 -50 l204 5 -5 -46 c-6 -46 -34 -221 -56 -341 -10 -57 -9 -70 7 -103 10 -21 30 -44 46 -52 53 -28 163 -11 211 32 18 16 19 25 13 86 -6 68 20 379 36 423 7 20 17 21 211 28 112 4 300 13 418 20 118 7 217 11 219 9 6 -4 -15 -153 -31 -226 -6 -30 -21 -60 -39 -78 -40 -41 -39 -84 4 -141 18 -24 49 -51 70 -62 71 -34 167 1 195 71 12 30 72 388 72 429 0 18 5 24 23 24 71 0 245 23 272 36 40 19 58 55 45 89 -7 18 -28 34 -66 52 -53 24 -64 25 -149 19 l-92 -6 34 207 c18 115 47 279 63 367 38 203 39 229 1 267 -26 26 -36 29 -88 29 -32 -1 -72 -7 -89 -14z"
       id="path16" />
    <path
       d="M3540 3489 c-274 -31 -446 -45 -724 -59 -165 -8 -191 -7 -212 7 -29 18 -112 12 -171 -12 -19 -8 -59 -15 -87 -15 -74 0 -183 -18 -215 -35 -32 -16 -56 -64 -47 -93 4 -11 19 -28 34 -38 23 -15 45 -18 144 -16 64 1 119 -1 122 -6 2 -4 8 -62 12 -129 l7 -121 -136 -7 c-74 -4 -146 -13 -158 -19 -52 -26 -50 -103 4 -137 29 -19 44 -20 172 -16 l141 5 21 -112 c49 -254 102 -324 274 -363 113 -26 654 -25 794 0 220 41 373 112 416 192 49 93 -32 175 -174 175 -104 0 -141 -57 -80 -122 l26 -27 -58 -16 c-116 -34 -215 -46 -422 -52 -138 -4 -251 -1 -326 7 l-115 12 -25 57 c-29 63 -53 151 -63 229 -5 43 -4 52 9 52 39 0 395 32 507 46 215 26 387 72 424 113 12 13 16 32 14 57 -6 77 -86 97 -209 50 -37 -14 -104 -32 -150 -40 -74 -13 -531 -56 -600 -56 l-27 0 -7 116 c-4 63 -5 117 -4 118 2 2 96 9 209 15 358 21 761 69 967 116 108 25 148 74 107 133 -13 19 -23 22 -82 21 -37 -1 -177 -14 -312 -30z"
       id="path18" />
    <path
       d="M835 3389 c-246 -23 -640 -95 -749 -136 -27 -10 -58 -30 -69 -45 -18 -24 -18 -30 -7 -58 29 -69 94 -75 277 -25 70 19 182 44 248 55 66 11 132 22 148 25 l27 5 0 -94 c0 -52 5 -161 10 -243 6 -81 14 -229 18 -328 10 -205 19 -236 80 -262 46 -19 129 -10 174 20 41 28 49 74 20 115 -17 23 -21 52 -27 197 l-7 171 129 23 c169 31 446 101 555 141 182 66 270 145 272 244 2 106 -117 168 -376 196 -113 12 -592 11 -723 -1z m630 -159 c126 -12 218 -35 212 -53 -12 -38 -162 -98 -372 -152 -152 -38 -333 -71 -341 -62 -10 10 -17 190 -10 230 6 31 11 36 39 40 69 8 368 6 472 -3z"
       id="path20" />
  </g>
</svg>
